<svg width="20" height="20" viewBox="0 0 20 20" fill="none" xmlns="http://www.w3.org/2000/svg">
<path d="M17.7778 0H2.22222C1.63285 0 1.06762 0.234126 0.650874 0.650874C0.234126 1.06762 0 1.63285 0 2.22222V17.7778C0 18.3671 0.234126 18.9324 0.650874 19.3491C1.06762 19.7659 1.63285 20 2.22222 20H17.7778C18.3671 20 18.9324 19.7659 19.3491 19.3491C19.7659 18.9324 20 18.3671 20 17.7778V2.22222C20 1.63285 19.7659 1.06762 19.3491 0.650874C18.9324 0.234126 18.3671 0 17.7778 0ZM17.7778 17.7778H2.22222V2.22222H17.7778V17.7778ZM12.1556 7.84445C12.8556 8.55556 13.2444 9.48889 13.2444 10.4889C13.2444 11.4889 12.8556 12.4222 12.1556 13.1222L9.7 15.5556C8.97778 16.3 8.02222 16.6667 7.06667 16.6667C6.11111 16.6667 5.15556 16.3 4.44444 15.5556C2.96667 14.1222 2.96667 11.7556 4.44444 10.2889L5.94445 8.77778L5.93333 9.44444C5.92222 10 6.01111 10.5556 6.18889 11.0444L6.24444 11.2111L5.8 11.6667C5.45556 12 5.26667 12.4556 5.26667 12.9333C5.26667 13.4111 5.45556 13.8556 5.8 14.2C6.47778 14.8889 7.65556 14.8889 8.33333 14.2L10.7778 11.7667C11.1111 11.4222 11.3111 10.9667 11.3111 10.4889C11.3111 10 11.1111 9.56667 10.7778 9.22222C10.5889 9.04445 10.4889 8.8 10.4889 8.53333C10.4889 8.27778 10.5889 8.03333 10.7778 7.84445C11.1444 7.47778 11.7889 7.48889 12.1556 7.84445ZM16.6667 7.06667C16.6667 8.06667 16.2778 9 15.5556 9.71111L14.0667 11.2222V10.5556C14.0778 10 13.9889 9.44445 13.8111 8.95556L13.7556 8.8L14.2 8.33333C14.5444 8 14.7333 7.54444 14.7333 7.06667C14.7333 6.58889 14.5444 6.14444 14.2 5.8C13.5222 5.11111 12.3333 5.12222 11.6667 5.8L9.22222 8.24444C8.88889 8.57778 8.68889 9.03333 8.68889 9.51111C8.68889 10 8.88889 10.4333 9.22222 10.7778C9.41111 10.9556 9.51111 11.2 9.51111 11.4667C9.51111 11.7333 9.41111 11.9778 9.22222 12.1556C9.03333 12.3444 8.78889 12.4333 8.53333 12.4333C8.28889 12.4333 8.03333 12.3444 7.84445 12.1556C6.38889 10.7 6.38889 8.33333 7.84445 6.87778L10.3 4.44444C11.7556 2.96667 14.1222 2.97778 15.5556 4.44444C16.2778 5.13333 16.6667 6.06667 16.6667 7.06667Z" fill="#9CA3AF"/>
</svg>
